<svg xmlns="http://www.w3.org/2000/svg" viewBox="0 0 48 48" role="img" aria-label="AI Legal Assistant">
  <defs>
    <linearGradient id="g" x1="0" y1="0" x2="1" y2="1">
      <stop offset="0" stop-color="#111827"/>
      <stop offset="1" stop-color="#0f1e2e"/>
    </linearGradient>
  </defs>
  <rect x="2" y="2" width="44" height="44" rx="10" fill="url(#g)"/>
  <!-- Circuit nodes -->
  <circle cx="12" cy="14" r="2" fill="#E1BC89"/>
  <circle cx="20" cy="10" r="1.8" fill="#E1BC89"/>
  <circle cx="28" cy="14" r="2" fill="#E1BC89"/>
  <circle cx="36" cy="10" r="1.6" fill="#E1BC89"/>
  <path d="M12 14 L20 10 L28 14 L36 10" stroke="#E1BC89" stroke-width="1.5" fill="none" stroke-linecap="round"/>
  <!-- Neural arcs -->
  <path d="M10 22c6-4 22-4 28 0" stroke="#E1BC89" stroke-width="1.2" fill="none" stroke-linecap="round" opacity="0.9"/>
  <path d="M12 26c5-3 18-3 24 0" stroke="#E1BC89" stroke-width="1" fill="none" stroke-linecap="round" opacity="0.7"/>
  <!-- Scales of justice -->
  <g transform="translate(24,28)">
    <rect x="-1" y="-8" width="2" height="14" fill="#E1BC89"/>
    <path d="M-10 -5 L10 -5" stroke="#E1BC89" stroke-width="1.8" stroke-linecap="round"/>
    <path d="M-10 -5 L-14 3 M10 -5 L14 3" stroke="#E1BC89" stroke-width="1.2" stroke-linecap="round"/>
    <circle cx="-14" cy="3" r="3.5" fill="none" stroke="#E1BC89" stroke-width="1.4"/>
    <circle cx="14" cy="3" r="3.5" fill="none" stroke="#E1BC89" stroke-width="1.4"/>
    <path d="M-14 0 a3.5 3.5 0 0 0 0 7 M14 0 a3.5 3.5 0 0 0 0 7" stroke="#E1BC89" stroke-width="1.2" fill="none"/>
    <rect x="-5" y="6" width="10" height="2" fill="#E1BC89" rx="1"/>
  </g>
</svg>
